<?xml version="1.0" encoding="UTF-8"?> <svg xmlns="http://www.w3.org/2000/svg" id="Layer_2" data-name="Layer 2" viewBox="0 0 185.80723 68.03011"><defs><style>.cls-1{fill:#b1b3b6;}.cls-2{fill:#fff;}</style></defs><title>vkmusic_badge</title><path class="cls-1" d="M497.64163,204.29161H344.25833c-0.6245,0-1.2407,0-1.86353.00332-0.51985.00332-1.03639,0.01329-1.56124,0.02159a22.45621,22.45621,0,0,0-3.40814.30062,11.33236,11.33236,0,0,0-3.23376,1.06629,10.93011,10.93011,0,0,0-2.75209,2.0047,10.6665,10.6665,0,0,0-2.00469,2.75707,11.17673,11.17673,0,0,0-1.063,3.23708,22.097,22.097,0,0,0-.30394,3.40484c-0.01661.52152-.01827,1.0447-0.02657,1.56622V257.965c0.0083,0.52808.01,1.03967,0.02657,1.56792a22.0959,22.0959,0,0,0,.30394,3.40474,11.17057,11.17057,0,0,0,1.063,3.23874,10.54313,10.54313,0,0,0,2.00469,2.74382,10.65944,10.65944,0,0,0,2.75209,2.00638,11.393,11.393,0,0,0,3.23376,1.07283,22.6378,22.6378,0,0,0,3.40814.299c0.52485,0.01327,1.04139.0199,1.56124,0.0199,0.62283,0.0034,1.239.0034,1.86353,0.0034H497.64163c0.61125,0,1.23237,0,1.84362-.0034,0.51822,0,1.0497-.00663,1.56792-0.0199a22.36336,22.36336,0,0,0,3.40151-.299A11.57247,11.57247,0,0,0,507.7,270.92659a10.68261,10.68261,0,0,0,2.75046-2.00638,10.83712,10.83712,0,0,0,2.0096-2.74382,11.24888,11.24888,0,0,0,1.05294-3.23874,22.97109,22.97109,0,0,0,.31566-3.40474c0.00663-.52825.00663-1.03984,0.00663-1.56792,0.01327-.61788.01327-1.23237,0.01327-1.86028V220.51021c0-.62283,0-1.24068-0.01327-1.85686,0-.52152,0-1.0447-0.00663-1.56622a22.97224,22.97224,0,0,0-.31566-3.40484,11.25507,11.25507,0,0,0-1.05294-3.23708A10.9974,10.9974,0,0,0,507.7,205.68344a11.5099,11.5099,0,0,0-3.24538-1.06629,22.18452,22.18452,0,0,0-3.40151-.30062c-0.51822-.0083-1.0497-0.01827-1.56792-0.02159-0.61125-.00332-1.23237-0.00332-1.84362-0.00332h0Z" transform="translate(-328.04139 -204.29161)"></path><path d="M342.40477,270.83356c-0.51819,0-1.02477-.00663-1.538-0.0199a21.75491,21.75491,0,0,1-3.17894-.27569,10.04545,10.04545,0,0,1-2.81854-.93354,9.16658,9.16658,0,0,1-2.37673-1.72728,9.02526,9.02526,0,0,1-1.734-2.3751,9.66774,9.66774,0,0,1-.92346-2.82019,20.77884,20.77884,0,0,1-.284-3.18891c-0.01163-.35869-0.02492-1.55126-0.02492-1.55126V218.65335s0.01495-1.17592.02492-1.52139a20.91126,20.91126,0,0,1,.28068-3.18393,9.84087,9.84087,0,0,1,.92512-2.82682,9.15564,9.15564,0,0,1,1.72567-2.37757,9.49524,9.49524,0,0,1,2.385-1.739,9.90583,9.90583,0,0,1,2.81356-.92511,21.386,21.386,0,0,1,3.18891-.279l1.53466-.02076H499.47691l1.553,0.02159a21.06368,21.06368,0,0,1,3.16068.27653,10.09963,10.09963,0,0,1,2.84179.93176,9.51357,9.51357,0,0,1,4.10732,4.1157,9.80088,9.80088,0,0,1,.91024,2.80441,22.10177,22.10177,0,0,1,.29559,3.21051c0.00493,0.48165.00493,0.99819,0.00493,1.51307,0.01344,0.63778.01344,1.244,0.01344,1.85686V256.1047c0,0.61788,0,1.2191-.01344,1.82712,0,0.55462,0,1.05957-.00663,1.58119a21.63548,21.63548,0,0,1-.29066,3.15235,9.74453,9.74453,0,0,1-.91841,2.84009,9.32966,9.32966,0,0,1-1.72728,2.35843,9.19963,9.19963,0,0,1-2.38,1.73732,9.966,9.966,0,0,1-2.83686.93677,21.52472,21.52472,0,0,1-3.179.27569c-0.49815.01327-1.01977,0.0199-1.52626,0.0199l-1.84362.0034Z" transform="translate(-328.04139 -204.29161)"></path><path class="cls-2" d="M381.59,239.25665s5.8801-8.29434,6.46433-11.02017a1.12052,1.12052,0,0,0-1.24626-1.51889H381.707a1.8619,1.8619,0,0,0-1.94705,1.24624,46.21332,46.21332,0,0,1-6.1137,9.57957c-1.07735,1.19716-1.625,1.55746-2.21969,1.55746-0.47956,0-.70088-0.39981-0.70088-1.47976v-9.46251c0-1.32388-.15571-1.71337-1.246-1.71337h-8.1776a0.8941,0.8941,0,0,0-1.01251.8566c0,1.2468,1.90809,1.52827,1.90809,4.90657v6.97037c0,1.40187-.0779,1.94706-0.73987,1.94706-1.75227,0-5.919-6.0357-8.25535-12.88933-0.46734-1.40177-.97358-1.79126-2.29755-1.79126h-5.10116a1.21687,1.21687,0,0,0-1.28508,1.2459c0,1.36292,1.59653,7.67144,7.8661,16.12166,4.20549,5.68528,9.735,8.76155,14.71944,8.76155,3.03741,0,3.77725-.50606,3.77725-1.79125v-4.3614c0-1.09037.42834-1.55756,1.05142-1.55756,0.7008,0,1.93794.22524,4.82858,3.07627,3.42682,3.27119,3.66051,4.63394,5.52975,4.63394h5.72413a1.05983,1.05983,0,0,0,1.12932-1.24608c0-1.28511-1.6745-3.58251-4.24464-6.30844-1.05133-1.40177-2.7647-2.92047-3.31-3.62136C380.81134,240.58063,381.04493,240.11324,381.59,239.25665Z" transform="translate(-328.04139 -204.29161)"></path><path class="cls-2" d="M398.03493,224.88849a5.24364,5.24364,0,0,1,9.50923-3.021l-1.00277.84047a4.05248,4.05248,0,0,0-3.29168-1.72063,3.79573,3.79573,0,0,0-3.81977,3.9144,3.694,3.694,0,0,0,3.80654,3.80654,4.19391,4.19391,0,0,0,3.35934-1.69315l0.97529,0.82623a5.39453,5.39453,0,0,1-4.38907,2.16732A5.00458,5.00458,0,0,1,398.03493,224.88849Z" transform="translate(-328.04139 -204.29161)"></path><path class="cls-2" d="M408.30323,229.87332l-0.2844-.94833c0.25743,0.01425.3658,0.02747,0.46043,0.02747a1.18064,1.18064,0,0,0,.989-0.46094c0.77179-1.01548.97529-3.57556,1.246-5.89246H415.144v7.261h-1.30039v-6.13666h-2.005c-0.23047,1.92413-.4065,3.9551-1.20525,5.20156a2.04464,2.04464,0,0,1-1.829,1.00226A2.25851,2.25851,0,0,1,408.30323,229.87332Z" transform="translate(-328.04139 -204.29161)"></path><path class="cls-2" d="M423.45664,222.59907l-3.048,8.074c-0.62272,1.66568-1.422,2.27517-2.51938,2.27517a2.233,2.233,0,0,1-1.16506-.28491l0.1628-1.13759a2.39619,2.39619,0,0,0,.88015.21673,1.60161,1.60161,0,0,0,1.43623-1.27292l0.27066-.637-3.15584-7.23355h1.50339l2.24872,5.44576,1.95058-5.44576h1.43572Z" transform="translate(-328.04139 -204.29161)"></path><path class="cls-2" d="M424.65731,222.59907h1.30039v6.096h3.11564v-6.096h1.30039v6.096h3.11564v-6.096h1.30039v7.261H424.65731v-7.261Z" transform="translate(-328.04139 -204.29161)"></path><path class="cls-2" d="M442.74474,225.47153v4.38856h-1.219v-0.9758a2.95219,2.95219,0,0,1-2.51938,1.19253,2.42772,2.42772,0,0,1-2.69592-2.384c0-1.25969,1.00277-2.26195,3.12938-2.26195a11.59026,11.59026,0,0,0,2.059-.10887,1.76788,1.76788,0,0,0-2.01825-1.72063,4.17443,4.17443,0,0,0-2.22175.65019L436.663,223.29a4.89571,4.89571,0,0,1,2.84448-.86693A2.91238,2.91238,0,0,1,442.74474,225.47153Zm-1.25969.96156a7.31449,7.31449,0,0,1-1.43572.09463c-1.46319,0-2.411.1221-2.411,1.16506a1.28591,1.28591,0,0,0,1.48965,1.20576A2.39259,2.39259,0,0,0,441.485,226.43308Z" transform="translate(-328.04139 -204.29161)"></path><path class="cls-2" d="M444.68921,222.59907h1.25969v5.26973l4.57884-5.26973h0.78553v7.261h-1.24646v-5.229l-4.56459,5.229h-0.813v-7.261Zm0.97529-1.74708,0.65019-.70412a2.20264,2.20264,0,0,0,1.76133.989,2.17045,2.17045,0,0,0,1.774-.989L450.514,220.852a3.0229,3.0229,0,0,1-2.438,1.25969A2.9408,2.9408,0,0,1,445.66451,220.852Z" transform="translate(-328.04139 -204.29161)"></path><path class="cls-2" d="M458.58293,223.72343h-2.41152v6.13666h-1.28665v-6.13666h-2.411v-1.12436h6.10919v1.12436Z" transform="translate(-328.04139 -204.29161)"></path><path class="cls-2" d="M466.32677,226.75767h-5.78409a2.35952,2.35952,0,0,0,2.54634,2.07269,4.57288,4.57288,0,0,0,2.53311-.813l0.55557,0.989a5.2895,5.2895,0,0,1-3.11564,1.0165,3.80139,3.80139,0,0,1-.203-7.59985,3.38675,3.38675,0,0,1,3.5079,3.67121C466.367,226.39238,466.34,226.58164,466.32677,226.75767Zm-5.78409-1.12436h4.4837a2.08824,2.08824,0,0,0-2.16732-2.05844A2.34789,2.34789,0,0,0,460.54268,225.63331Z" transform="translate(-328.04139 -204.29161)"></path><path class="cls-2" d="M409.7278,248.36511a4.08874,4.08874,0,0,1-4.42627,4.085h-6.25V238.411h5.96533c2.65918,0,3.97021,1.78516,3.97021,3.49512a3.01261,3.01261,0,0,1-1.91895,2.84961A3.54516,3.54516,0,0,1,409.7278,248.36511Zm-8.11182-7.65527v3.248h2.8877a1.69683,1.69683,0,0,0,1.88086-1.67187,1.62,1.62,0,0,0-1.78564-1.57617H401.616Zm5.43359,7.46582a2.02059,2.02059,0,0,0-2.2417-2.01367H401.616v3.96973h3.19189A2.03348,2.03348,0,0,0,407.04958,248.17565Z" transform="translate(-328.04139 -204.29161)"></path><path class="cls-2" d="M416.24391,246.73132l-1.76709,2.14746v3.57129h-2.5835V238.411h2.5835v6.89551l5.58545-6.89551h3.13428l-5.24316,6.4209,5.64209,7.61816h-3.19141Z" transform="translate(-328.04139 -204.29161)"></path><path class="cls-2" d="M423.4612,247.28307a5.50957,5.50957,0,1,1,5.50879,5.43262A5.3288,5.3288,0,0,1,423.4612,247.28307Zm8.52979,0a3.02279,3.02279,0,1,0-3.021,3.13379A3.05013,3.05013,0,0,0,431.991,247.28307Z" transform="translate(-328.04139 -204.29161)"></path><path class="cls-2" d="M445.80885,242.13464v10.31543h-2.45068v-4.085H438.9319v4.085h-2.46973V242.13464h2.46973V246.162h4.42627v-4.02734h2.45068Z" transform="translate(-328.04139 -204.29161)"></path><path class="cls-2" d="M456.13942,244.28112H452.929v8.16895h-2.45068v-8.16895h-3.21045v-2.14648h8.87158v2.14648Z" transform="translate(-328.04139 -204.29161)"></path><path class="cls-2" d="M466.367,246.29479v6.15527h-2.2417v-1.21582a4.15474,4.15474,0,0,1-3.38135,1.48145c-2.39355,0-3.72363-1.46289-3.72363-3.34375,0-2.03223,1.729-3.22949,4.55957-3.248,0.74072-.01953,1.65283,0,2.46973-0.09473-0.1333-1.4248-1.10205-1.97656-2.46973-1.97656a6.6202,6.6202,0,0,0-3.19141.874l-0.93115-1.84277a8.03954,8.03954,0,0,1,4.21729-1.19629C464.08717,241.88757,466.367,243.00866,466.367,246.29479Zm-2.35547,1.61426c-0.60791.05762-1.25391,0.07617-1.86182,0.07617-1.65283.01953-2.7168,0.209-2.7168,1.34863a1.44807,1.44807,0,0,0,1.71,1.34961A2.8581,2.8581,0,0,0,464.01149,247.90905Z" transform="translate(-328.04139 -204.29161)"></path><path class="cls-2" d="M472.10963,248.09948l-0.83594.79785v3.55273h-2.43164V242.13464h2.43164v3.89453l4.02734-3.89453h3.05859l-4.57861,4.36914,4.67334,5.94629H475.491Z" transform="translate(-328.04139 -204.29161)"></path><path class="cls-2" d="M488.06276,244.28112h-3.21045v8.16895h-2.45068v-8.16895h-3.21045v-2.14648h8.87158v2.14648Z" transform="translate(-328.04139 -204.29161)"></path><path class="cls-2" d="M499.29518,248.17565h-7.86475a2.94542,2.94542,0,0,0,3.15381,2.374,6.36976,6.36976,0,0,0,3.40039-1.06348l0.98779,1.7666a7.75444,7.75444,0,0,1-4.4834,1.4248c-3.87549,0-5.585-2.65918-5.585-5.39453a5.16677,5.16677,0,0,1,5.35693-5.39551,4.86545,4.86545,0,0,1,5.11035,5.18652A9.39694,9.39694,0,0,1,499.29518,248.17565Zm-7.86475-1.88086h5.50928a2.59853,2.59853,0,0,0-2.67871-2.33691A2.81756,2.81756,0,0,0,491.43044,246.29479Z" transform="translate(-328.04139 -204.29161)"></path></svg> 