<?xml version="1.0" encoding="UTF-8"?> <svg xmlns="http://www.w3.org/2000/svg" xmlns:xlink="http://www.w3.org/1999/xlink" width="456px" height="126px" viewBox="0 0 456 126"><!-- Generator: Sketch 40.3 (33839) - http://www.bohemiancoding.com/sketch --><title>badge_ru_stroke</title><desc>Created with Sketch.</desc><defs><polygon id="path-1" points="0 125.82 456 125.82 456 0 0 0"></polygon></defs><g id="RU" stroke="none" stroke-width="1" fill="none" fill-rule="evenodd"><g id="badge_ru_stroke"><g id="Group"><g id="bg"><mask id="mask-2" fill="white"><use xlink:href="#path-1"></use></mask><g id="Clip-2"></g><path d="M453.075407,110.307 C453.075407,117.324 447.690667,123.063 441.106815,123.063 L14.8931852,123.063 C8.30933333,123.063 2.92459259,117.324 2.92459259,110.307 L2.92459259,15.693 C2.92459259,8.676 8.30933333,2.937 14.8931852,2.937 L441.106815,2.937 C447.690667,2.937 453.075407,8.676 453.075407,15.693 L453.075407,110.307" id="Fill-1" fill="#000105" mask="url(#mask-2)"></path><path d="M441.106815,0 L14.8931852,0 C6.74148148,0 0,7.005 0,15.693 L0,110.307 C0,118.995 6.74148148,126 14.8931852,126 L441.106815,126 C449.258519,126 456,118.995 456,110.307 L456,15.693 C456,7.005 449.258519,0 441.106815,0 L441.106815,0 Z M441.106815,3 C447.690667,3 453.185185,8.676 453.185185,15.693 L453.185185,110.307 C453.185185,117.324 447.690667,123 441.106815,123 L14.8931852,123 C8.30933333,123 2.81481481,117.324 2.81481481,110.307 L2.81481481,15.693 C2.81481481,8.676 8.30933333,3 14.8931852,3 L441.925926,3 L441.106815,3 Z" id="Fill-3" fill="#ABADA9" mask="url(#mask-2)"></path></g><path d="M282.856729,66.9071999 C282.142305,64.2796799 281.572118,62.0083199 281.141661,59.6675199 L280.929813,59.6675199 C281.071797,62.0799999 281.141661,64.6358399 281.141661,67.1916799 L281.141661,102.7584 L278,102.7584 L278,52 L282.142305,52 L290.785254,84.4419198 C291.141339,85.7926398 291.641661,88.4179198 291.855763,90.3353597 L292.069865,90.3353597 C292.356085,88.4179198 292.928525,85.7187198 293.28461,84.4419198 L301.997424,52 L306,52 L306,102.7584 L302.569865,102.7584 L302.569865,67.1916799 C302.569865,64.7791999 302.714102,62.2211199 302.856085,59.6675199 L302.569865,59.6675199 C301.92756,62.5055999 301.427238,64.5641599 300.854797,66.6943999 L293.214746,94.9497597 L290.426916,94.9497597 L282.856729,66.9071999 Z M419.028,84.432 C419.124,89.4720252 419.819994,93.3119868 421.116,95.952 C422.412006,98.5920132 424.403987,99.912 427.092,99.912 C428.292006,99.912 429.347995,99.7200019 430.26,99.336 C431.172005,98.9519981 431.939997,98.4960026 432.564,97.968 C433.284004,97.4399974 433.883998,96.7920038 434.364,96.024 L435.444,98.688 C434.867997,99.4560038 434.172004,100.127997 433.356,100.704 C432.683997,101.232003 431.808005,101.699998 430.728,102.108 C429.647995,102.516002 428.412007,102.72 427.02,102.72 C423.179981,102.72 420.360009,101.076016 418.56,97.788 C416.759991,94.4999836 415.86,89.85603 415.86,83.856 C415.86,80.8799851 416.123997,78.2280116 416.652,75.9 C417.180003,73.5719884 417.911995,71.5920082 418.848,69.96 C419.784005,68.3279918 420.887994,67.0920042 422.16,66.252 C423.432006,65.4119958 424.835992,64.992 426.372,64.992 C427.908008,64.992 429.299994,65.3999959 430.548,66.216 C431.796006,67.0320041 432.827996,68.2559918 433.644,69.888 C434.460004,71.5200082 435.035998,73.5479879 435.372,75.972 C435.708002,78.3960121 435.732001,81.2159839 435.444,84.432 L419.028,84.432 Z M426.372,67.656 C424.45199,67.656 422.796007,68.8679879 421.404,71.292 C420.011993,73.7160121 419.244001,77.2559767 419.1,81.912 L432.42,81.912 C432.564001,79.4639878 432.516001,77.340009 432.276,75.54 C432.035999,73.739991 431.628003,72.2520059 431.052,71.076 C430.475997,69.8999941 429.780004,69.0360028 428.964,68.484 C428.147996,67.9319972 427.284005,67.656 426.372,67.656 Z M123.76603,52.3441459 C121.738686,52.3441459 119.807882,52.6777544 117.973618,53.3449715 C116.139355,54.0121886 114.534374,55.0130142 113.158676,56.3474484 C111.782978,57.6818826 110.696901,59.3618399 109.900445,61.3873203 C109.103988,63.4128007 108.70576,65.7599751 108.70576,68.4288434 C108.70576,72.2415125 109.405676,75.2559039 110.805509,77.4720178 C112.205342,79.6881317 114.039605,81.368089 116.3083,82.5118897 L106.60601,103.45774 L113.050068,103.45774 L121.883496,83.870153 L126.517425,83.870153 L126.517425,103.45774 L132.092621,103.45774 L132.092621,52.3441459 L123.76603,52.3441459 Z M120.10957,77.7587936 C119.023493,77.4013559 118.082226,76.7937117 117.285769,75.9358612 C116.489313,75.0780107 115.861801,73.9580391 115.403236,72.5759466 C114.94467,71.1938541 114.715387,69.478153 114.715387,67.4288434 C114.715387,65.2842171 114.968805,63.4851139 115.475641,62.0315338 C115.982477,60.5779537 116.646191,59.4103238 117.466782,58.5286441 C118.287374,57.6469644 119.228641,57.0035765 120.290583,56.5984804 C121.352525,56.1933843 122.438602,55.9908363 123.548814,55.9908363 L126.517425,55.9908363 L126.517425,78.2949502 L123.548814,78.2949502 C122.342062,78.2949502 121.195647,78.1162313 120.10957,77.7587936 Z M341.307287,66.8211993 C339.979859,67.5599039 338.90585,68.4534982 338.085258,69.5019822 L338.95412,72.7189217 C339.774711,71.6227794 340.776316,70.6696121 341.958933,69.8594199 C343.141551,69.0492278 344.577586,68.6441317 346.267039,68.6441317 C348.053033,68.6441317 349.416663,69.1922028 350.35793,70.2883452 C351.299197,71.3844875 351.76983,72.8380676 351.76983,74.6490854 C351.76983,77.1273203 351.106117,78.9859964 349.778689,80.2251139 C348.451261,81.4642313 346.725605,82.08379 344.601721,82.08379 L341.922731,82.08379 L341.922731,84.8003167 L344.964082,84.8003167 C347.715142,84.8003167 349.682149,85.491363 350.864766,86.8734555 C352.047383,88.255548 352.638692,90.090395 352.638692,92.3779964 C352.638692,94.9992064 351.975314,96.9651139 350.647551,98.2757189 C349.320123,99.5863238 347.715142,100.241626 345.832609,100.241626 C344.577586,100.241626 343.491509,100.050993 342.574377,99.669726 C341.657245,99.2884591 340.884924,98.8357046 340.257412,98.3114626 C339.533361,97.7872206 338.90585,97.1438327 338.374879,96.3812989 L337.216396,99.1693132 C337.795637,99.931847 338.519689,100.599064 339.388551,101.170964 C340.112602,101.695206 341.005599,102.159875 342.067541,102.564972 C343.129483,102.970068 344.408641,103.172616 345.905014,103.172616 C347.304846,103.172616 348.620207,102.934324 349.851094,102.45774 C351.081982,101.981157 352.168059,101.278196 353.109326,100.348858 C354.050592,99.4195196 354.786711,98.2876335 355.317682,96.9531993 C355.848654,95.6187651 356.114139,94.0698683 356.114139,92.3065089 C356.114139,90.3048577 355.607303,88.4938399 354.593631,86.8734555 C353.579959,85.2530712 351.914641,84.0377829 349.597676,83.2275907 C351.62502,82.2744235 353.03692,81.035306 353.833377,79.5102384 C354.630169,77.9851708 355.028062,76.3409573 355.028062,74.5775979 C355.028062,71.9087295 354.291943,69.7641032 352.819705,68.1437189 C351.347467,66.5233345 349.163245,65.7131423 346.267039,65.7131423 C344.287965,65.7131423 342.634715,66.0824947 341.307287,66.8211993 Z M247.75984,67.2501246 C246.142792,68.1318043 244.791229,69.3709217 243.705152,70.9674769 C242.619075,72.564032 241.798483,74.5061103 241.243377,76.7937117 C240.688271,79.0813132 240.410718,81.6310356 240.410718,84.442879 C240.410718,90.6387972 241.52093,95.273242 243.741355,98.3472064 C245.961779,101.421171 249.02693,102.958153 252.936808,102.958153 C254.626261,102.958153 256.074364,102.707947 257.281117,102.207534 C258.487869,101.707121 259.573946,101.051819 260.539348,100.241626 L259.236055,96.0953488 C258.560274,96.6672491 257.715547,97.1795765 256.701875,97.632331 C255.688203,98.0850854 254.481451,98.3114626 253.081618,98.3114626 C250.764654,98.3114626 249.063133,97.0842598 247.977055,94.6298541 C246.890978,92.1754484 246.34794,88.6844733 246.34794,84.1569288 C246.34794,79.581726 246.999586,76.174153 248.302879,73.93421 C249.606171,71.6942669 251.27149,70.5742954 253.298834,70.5742954 C254.457316,70.5742954 255.555461,70.8245018 256.593268,71.3249146 C257.631075,71.8253274 258.536139,72.4091423 259.308461,73.0763594 L260.104917,67.7862811 C259.284326,67.2620391 258.367194,66.8211993 257.353522,66.4637616 C256.33985,66.1063238 255.012422,65.927605 253.371239,65.927605 C251.247355,65.927605 249.376888,66.3684448 247.75984,67.2501246 Z M197.402062,67.4288434 C196.002229,68.429669 194.855814,69.8236762 193.962818,71.6108648 C193.069821,73.3980534 192.418174,75.5069359 192.007879,77.9375125 C191.597583,80.368089 191.392435,83.0369573 191.392435,85.9441174 C191.392435,91.5204769 192.478512,95.7498256 194.650666,98.6331566 C196.822821,101.516488 199.791432,102.958153 203.556499,102.958153 C205.390763,102.958153 207.056081,102.696032 208.552454,102.17179 C210.048827,101.647548 211.376255,100.932673 212.534737,100.027164 L211.231445,95.737911 C210.507393,96.262153 209.529924,96.7983096 208.299036,97.3463808 C207.068149,97.894452 205.656248,98.1684875 204.063335,98.1684875 C201.794641,98.1684875 200.09312,97.1200036 198.958773,95.0230356 C197.824425,92.9260676 197.257252,89.828605 197.257252,85.7296548 L212.462332,85.7296548 L212.462332,82.6556904 C212.462332,79.6055552 212.220982,77.020089 211.738281,74.8992918 C211.25558,72.7784947 210.579798,71.050879 209.710936,69.7164448 C208.842075,68.3820107 207.780133,67.4169288 206.52511,66.8211993 C205.270088,66.2254698 203.89439,65.927605 202.398017,65.927605 C200.467213,65.927605 198.801895,66.4280178 197.402062,67.4288434 Z M198.705355,73.3980534 C199.429406,71.4678897 200.660293,70.5028078 202.398017,70.5028078 C203.218609,70.5028078 203.906457,70.7649288 204.461564,71.2891708 C205.01667,71.8134128 205.4511,72.5521174 205.764856,73.5052847 C206.078612,74.458452 206.307895,75.5903381 206.452705,76.9009431 C206.597515,78.211548 206.66992,79.6293843 206.66992,81.154452 L197.329657,81.154452 C197.522737,77.9136833 197.981303,75.3282171 198.705355,73.3980534 Z M410.635213,66.4280178 L398.399079,83.3705658 L398.399079,66.4280178 L394.995702,66.4280178 L394.995702,102.45774 L398.399079,102.45774 L398.399079,83.7994911 L411.069644,102.45774 L414.835047,102.45774 L401.946931,83.1561032 L413.96585,66.4280178 L410.635213,66.4280178 Z M383.556024,102.45774 L386.886661,102.45774 L386.886661,66.4280178 L383.556024,66.4280178 L383.556024,102.45774 Z M362.123766,66.4280178 L362.123766,102.45774 L367.988583,102.45774 C371.416095,102.45774 374.215425,101.504573 376.38758,99.5982384 C378.560069,97.6919039 379.645811,94.8324021 379.645811,91.0197331 C379.645811,87.2547224 378.608004,84.442879 376.53239,82.5842028 C374.456776,80.7255267 371.681245,79.7961886 368.206133,79.7961886 L365.527143,79.7961886 L365.527143,66.4280178 L362.123766,66.4280178 Z M365.527143,82.4412278 L368.061323,82.4412278 C370.667908,82.4412278 372.694917,83.1203594 374.14302,84.4786228 C375.591123,85.8368861 376.31551,88.0410854 376.31551,91.0912206 C376.31551,94.1890142 375.519053,96.4170427 373.925805,97.775306 C372.332891,99.1335694 370.257277,99.8127011 367.698962,99.8127011 L365.527143,99.8127011 L365.527143,82.4412278 Z M331.35158,66.4280178 L325.703978,89.9474199 C325.366088,91.2818541 325.052332,92.6162883 324.762711,93.9507224 C324.473091,95.2851566 324.207605,96.6672491 323.966255,98.097 L323.749039,98.097 C323.555959,96.7149075 323.338744,95.3566441 323.097393,94.02221 C322.856043,92.6877758 322.566422,91.3295125 322.228531,89.9474199 L316.43612,66.4280178 L313.033078,66.4280178 L322.083721,103.458566 L321.7941,104.530879 C321.263129,106.53253 320.563213,108.093342 319.694351,109.213313 C318.82549,110.333285 317.763547,110.89327 316.508525,110.89327 C316.025824,110.89327 315.603461,110.869441 315.241435,110.821783 C314.879409,110.774125 314.553586,110.702637 314.263965,110.60732 L314.625991,113.752772 C314.867342,113.800431 315.144895,113.836174 315.45865,113.860004 C315.772406,113.883833 316.122364,113.895747 316.508525,113.895747 C317.811818,113.895747 318.92203,113.621712 319.839162,113.073641 C320.756293,112.525569 321.55275,111.810694 322.228531,110.929014 C322.904313,110.047335 323.471486,109.034594 323.930052,107.890794 C324.388953,106.746993 324.762711,105.555534 325.052332,104.316416 L334.392596,66.4280178 L331.35158,66.4280178 Z M232.663367,66.4280178 L223.902345,83.0846157 L223.902345,66.4280178 L218.254744,66.4280178 L218.254744,102.45774 L223.902345,102.45774 L223.902345,84.5143665 L233.532229,102.45774 L239.686666,102.45774 L229.332731,83.3705658 L238.383374,66.4280178 L232.663367,66.4280178 Z M168.150383,66.4280178 L168.150383,69.5019822 C168.150383,71.8849004 168.114181,74.3512206 168.041776,76.9009431 C167.969371,79.4506655 167.800425,81.9527295 167.53494,84.4071352 C167.269454,86.8615409 166.895361,89.2444591 166.41266,91.5558897 C165.929959,93.8673203 165.278313,95.9762028 164.457721,97.8825374 L162.213162,97.8825374 L162.213162,109.535007 L167.281522,109.535007 L167.281522,102.45774 L182.921033,102.45774 L182.921033,109.535007 L187.989393,109.535007 L187.989393,97.8825374 L185.093187,97.8825374 L185.093187,66.4280178 L168.150383,66.4280178 Z M171.62583,91.6273772 C172.060261,89.363605 172.398152,87.064089 172.639502,84.7288292 C172.880853,82.3935694 173.037731,80.0940534 173.110136,77.8302811 C173.182541,75.5665089 173.218744,73.4814555 173.218744,71.575121 L173.218744,70.9317331 L179.517991,70.9317331 L179.517991,97.8825374 L169.815702,97.8825374 C170.588023,95.9762028 171.1914,93.8911495 171.62583,91.6273772 Z M153.379734,66.4280178 L153.379734,81.7263523 L144.980737,81.7263523 L144.980737,66.4280178 L139.333136,66.4280178 L139.333136,102.45774 L144.980737,102.45774 L144.980737,86.3015552 L153.379734,86.3015552 L153.379734,102.45774 L158.95493,102.45774 L158.95493,66.4280178 L153.379734,66.4280178 Z" id="Combined-Shape" fill="#FFFFFF"></path><path d="M121.005,23.19 L110.835,23.19 L110.835,42 L108.075,42 L108.075,21.15 L123.765,21.15 L123.765,42 L121.005,42 L121.005,23.19 Z M134.685,42.3 C133.704995,42.3 132.775004,42.1250017 131.895,41.775 C131.014996,41.4249982 130.245003,40.9150033 129.585,40.245 C128.924997,39.5749966 128.400002,38.7550048 128.01,37.785 C127.619998,36.8149951 127.425,35.7000063 127.425,34.44 C127.425,33.1799937 127.619998,32.0650048 128.01,31.095 C128.400002,30.1249951 128.924997,29.3100033 129.585,28.65 C130.245003,27.9899967 131.014996,27.4850017 131.895,27.135 C132.775004,26.7849982 133.704995,26.61 134.685,26.61 C135.665005,26.61 136.599996,26.7849982 137.49,27.135 C138.380004,27.4850017 139.159997,27.9899967 139.83,28.65 C140.500003,29.3100033 141.034998,30.1249951 141.435,31.095 C141.835002,32.0650048 142.035,33.1799937 142.035,34.44 C142.035,35.7000063 141.835002,36.8149951 141.435,37.785 C141.034998,38.7550048 140.500003,39.5749966 139.83,40.245 C139.159997,40.9150033 138.380004,41.4249982 137.49,41.775 C136.599996,42.1250017 135.665005,42.3 134.685,42.3 L134.685,42.3 Z M134.685,40.41 C135.285003,40.41 135.869997,40.305001 136.44,40.095 C137.010003,39.8849989 137.514998,39.5400024 137.955,39.06 C138.395002,38.5799976 138.749999,37.9600038 139.02,37.2 C139.290001,36.4399962 139.425,35.5200054 139.425,34.44 C139.425,33.3599946 139.290001,32.4450037 139.02,31.695 C138.749999,30.9449962 138.395002,30.3300024 137.955,29.85 C137.514998,29.3699976 137.010003,29.025001 136.44,28.815 C135.869997,28.6049989 135.285003,28.5 134.685,28.5 C134.084997,28.5 133.510003,28.6049989 132.96,28.815 C132.409997,29.025001 131.915002,29.3699976 131.475,29.85 C131.034998,30.3300024 130.685001,30.9449962 130.425,31.695 C130.164999,32.4450037 130.035,33.3599946 130.035,34.44 C130.035,35.5200054 130.164999,36.4399962 130.425,37.2 C130.685001,37.9600038 131.034998,38.5799976 131.475,39.06 C131.915002,39.5400024 132.409997,39.8849989 132.96,40.095 C133.510003,40.305001 134.084997,40.41 134.685,40.41 L134.685,40.41 Z M151.965,42.3 C150.924995,42.3 149.950005,42.1250017 149.04,41.775 C148.129995,41.4249982 147.340003,40.9100034 146.67,40.23 C145.999997,39.5499966 145.470002,38.7250048 145.08,37.755 C144.689998,36.7849951 144.495,35.6800062 144.495,34.44 C144.495,33.2199939 144.689998,32.1250048 145.08,31.155 C145.470002,30.1849951 146.009997,29.3600034 146.7,28.68 C147.390003,27.9999966 148.204995,27.4850017 149.145,27.135 C150.085005,26.7849982 151.094995,26.61 152.175,26.61 C153.075004,26.61 153.884996,26.6999991 154.605,26.88 C155.325004,27.0600009 155.924998,27.3099984 156.405,27.63 L155.655,29.91 C155.074997,29.4899979 154.510003,29.1650011 153.96,28.935 C153.409997,28.7049988 152.755004,28.59 151.995,28.59 C151.334997,28.59 150.705003,28.7149987 150.105,28.965 C149.504997,29.2150012 148.985002,29.5849975 148.545,30.075 C148.104998,30.5650024 147.755001,31.1749963 147.495,31.905 C147.234999,32.6350036 147.105,33.4799952 147.105,34.44 C147.105,36.4000098 147.574995,37.8599952 148.515,38.82 C149.455005,39.7800048 150.734992,40.26 152.355,40.26 C152.895003,40.26 153.479997,40.160001 154.11,39.96 C154.740003,39.759999 155.314997,39.4700019 155.835,39.09 L156.405,40.98 C155.884997,41.380002 155.250004,41.6999988 154.5,41.94 C153.749996,42.1800012 152.905005,42.3 151.965,42.3 L151.965,42.3 Z M162.885,38.01 C162.584998,39.2500062 162.075004,40.2399963 161.355,40.98 C160.634996,41.7200037 159.595007,42.0700002 158.235,42.03 L157.905,39.93 C158.605003,39.9700002 159.199998,39.7550023 159.69,39.285 C160.180002,38.8149976 160.524999,38.1600042 160.725,37.32 C160.885001,36.6599967 161.01,35.9800035 161.1,35.28 C161.19,34.5799965 161.265,33.825004 161.325,33.015 C161.385,32.2049959 161.43,31.300005 161.46,30.3 C161.49,29.299995 161.515,28.1700063 161.535,26.91 L171.225,26.91 L171.225,42 L168.645,42 L168.585,28.71 L163.755,28.71 C163.735,29.6700048 163.71,30.5649958 163.68,31.395 C163.65,32.2250041 163.605,33.0149962 163.545,33.765 C163.485,34.5150037 163.400001,35.2349965 163.29,35.925 C163.179999,36.6150034 163.045001,37.3099965 162.885,38.01 L162.885,38.01 Z M176.835,47.88 C176.374998,47.88 175.960002,47.8450003 175.59,47.775 C175.219998,47.7049996 174.895001,47.6200005 174.615,47.52 L174.945,45.45 C175.185001,45.5500005 175.454998,45.6399996 175.755,45.72 C176.055001,45.8000004 176.374998,45.84 176.715,45.84 C177.275003,45.84 177.784998,45.6600018 178.245,45.3 C178.705002,44.9399982 179.204997,44.3000046 179.745,43.38 L173.775,26.91 L176.535,26.91 L181.125,40.08 L185.715,26.91 L188.025,26.91 L182.685,41.82 C182.324998,42.8000049 181.955002,43.6649962 181.575,44.415 C181.194998,45.1650037 180.775002,45.7949974 180.315,46.305 C179.854998,46.8150025 179.340003,47.2049986 178.77,47.475 C178.199997,47.7450013 177.555004,47.88 176.835,47.88 L176.835,47.88 Z M190.575,26.91 L193.125,26.91 L193.125,40.2 L198.705,40.2 L198.705,26.91 L201.285,26.91 L201.285,40.2 L206.865,40.2 L206.865,26.91 L209.415,26.91 L209.415,42 L190.575,42 L190.575,26.91 Z M218.145,40.44 C219.205005,40.44 220.049997,40.1750026 220.68,39.645 C221.310003,39.1149973 221.774998,38.5100034 222.075,37.83 L222.075,34.98 L220.755,34.98 C218.81499,34.98 217.420004,35.1849979 216.57,35.595 C215.719996,36.005002 215.295,36.7899942 215.295,37.95 C215.295,38.7700041 215.579997,39.3899979 216.15,39.81 C216.720003,40.2300021 217.384996,40.44 218.145,40.44 L218.145,40.44 Z M222.555,42 C222.475,41.7199986 222.405,41.3900019 222.345,41.01 C222.285,40.6299981 222.235,40.2200022 222.195,39.78 C222.014999,40.0800015 221.800001,40.3799985 221.55,40.68 C221.299999,40.9800015 220.995002,41.2499988 220.635,41.49 C220.274998,41.7300012 219.845002,41.9249992 219.345,42.075 C218.844997,42.2250007 218.265003,42.3 217.605,42.3 C216.944997,42.3 216.325003,42.2100009 215.745,42.03 C215.164997,41.8499991 214.650002,41.5800018 214.2,41.22 C213.749998,40.8599982 213.395001,40.4200026 213.135,39.9 C212.874999,39.3799974 212.745,38.7800034 212.745,38.1 C212.745,36.4599918 213.399993,35.2650037 214.71,34.515 C216.020007,33.7649962 217.954987,33.39 220.515,33.39 L222.075,33.39 L222.075,32.16 C222.075,30.9399939 221.815003,30.030003 221.295,29.43 C220.774997,28.829997 219.855007,28.53 218.535,28.53 C217.634995,28.53 216.820004,28.6949983 216.09,29.025 C215.359996,29.3550016 214.715003,29.7499977 214.155,30.21 L213.465,28.11 C213.705001,27.9299991 214.014998,27.7500009 214.395,27.57 C214.775002,27.3899991 215.204998,27.2300007 215.685,27.09 C216.165002,26.9499993 216.674997,26.8350004 217.215,26.745 C217.755003,26.6549995 218.304997,26.61 218.865,26.61 C220.765009,26.61 222.199995,27.0249958 223.17,27.855 C224.140005,28.6850041 224.625,29.999991 224.625,31.8 L224.625,39.57 C224.625,39.9100017 224.645,40.3349974 224.685,40.845 C224.725,41.3550025 224.775,41.7399987 224.835,42 L222.555,42 Z M235.485,25.38 C234.764996,25.38 234.135003,25.2850009 233.595,25.095 C233.054997,24.904999 232.605002,24.6500016 232.245,24.33 C231.884998,24.0099984 231.620001,23.6350021 231.45,23.205 C231.279999,22.7749978 231.195,22.3100025 231.195,21.81 L233.655,21.81 C233.655,22.5100035 233.809998,23.0199984 234.12,23.34 C234.430002,23.6600016 234.884997,23.82 235.485,23.82 C236.065003,23.82 236.509998,23.6600016 236.82,23.34 C237.130002,23.0199984 237.285,22.5100035 237.285,21.81 L239.745,21.81 C239.745,22.810005 239.395003,23.6549965 238.695,24.345 C237.994996,25.0350034 236.925007,25.38 235.485,25.38 L235.485,25.38 Z M228.735,26.91 L231.285,26.91 L231.285,38.58 L239.595,26.91 L241.935,26.91 L241.935,42 L239.385,42 L239.385,30.3 L231.105,42 L228.735,42 L228.735,26.91 Z M252.135,28.71 L252.135,42 L249.555,42 L249.555,28.71 L244.965,28.71 L244.965,26.91 L256.815,26.91 L256.815,28.71 L252.135,28.71 Z M265.875,28.44 C264.794995,28.44 263.870004,28.8199962 263.1,29.58 C262.329996,30.3400038 261.845001,31.4899923 261.645,33.03 L269.295,33.03 C269.415001,31.4699922 269.150003,30.3150037 268.5,29.565 C267.849997,28.8149962 266.975005,28.44 265.875,28.44 L265.875,28.44 Z M271.425,40.71 C270.884997,41.1700023 270.185004,41.5499985 269.325,41.85 C268.464996,42.1500015 267.485005,42.3 266.385,42.3 C263.984988,42.3 262.145006,41.6150068 260.865,40.245 C259.584994,38.8749931 258.945,36.9400125 258.945,34.44 C258.945,33.2199939 259.124998,32.1250048 259.485,31.155 C259.845002,30.1849951 260.339997,29.3600034 260.97,28.68 C261.600003,27.9999966 262.339996,27.4850017 263.19,27.135 C264.040004,26.7849982 264.954995,26.61 265.935,26.61 C266.955005,26.61 267.869996,26.7849982 268.68,27.135 C269.490004,27.4850017 270.159997,28.0049965 270.69,28.695 C271.220003,29.3850034 271.579999,30.2449948 271.77,31.275 C271.960001,32.3050051 271.955001,33.4899933 271.755,34.83 L261.555,34.83 C261.675001,38.4500181 263.364984,40.26 266.625,40.26 C267.485004,40.26 268.254997,40.1300013 268.935,39.87 C269.615003,39.6099987 270.244997,39.280002 270.825,38.88 L271.425,40.71 Z M291.615,35.1 L284.295,35.1 L284.295,42 L281.745,42 L281.745,26.91 L284.295,26.91 L284.295,33.3 L291.615,33.3 L291.615,26.91 L294.165,26.91 L294.165,42 L291.615,42 L291.615,35.1 Z M302.895,40.44 C303.955005,40.44 304.799997,40.1750026 305.43,39.645 C306.060003,39.1149973 306.524998,38.5100034 306.825,37.83 L306.825,34.98 L305.505,34.98 C303.56499,34.98 302.170004,35.1849979 301.32,35.595 C300.469996,36.005002 300.045,36.7899942 300.045,37.95 C300.045,38.7700041 300.329997,39.3899979 300.9,39.81 C301.470003,40.2300021 302.134996,40.44 302.895,40.44 L302.895,40.44 Z M307.305,42 C307.225,41.7199986 307.155,41.3900019 307.095,41.01 C307.035,40.6299981 306.985,40.2200022 306.945,39.78 C306.764999,40.0800015 306.550001,40.3799985 306.3,40.68 C306.049999,40.9800015 305.745002,41.2499988 305.385,41.49 C305.024998,41.7300012 304.595002,41.9249992 304.095,42.075 C303.594997,42.2250007 303.015003,42.3 302.355,42.3 C301.694997,42.3 301.075003,42.2100009 300.495,42.03 C299.914997,41.8499991 299.400002,41.5800018 298.95,41.22 C298.499998,40.8599982 298.145001,40.4200026 297.885,39.9 C297.624999,39.3799974 297.495,38.7800034 297.495,38.1 C297.495,36.4599918 298.149993,35.2650037 299.46,34.515 C300.770007,33.7649962 302.704987,33.39 305.265,33.39 L306.825,33.39 L306.825,32.16 C306.825,30.9399939 306.565003,30.030003 306.045,29.43 C305.524997,28.829997 304.605007,28.53 303.285,28.53 C302.384995,28.53 301.570004,28.6949983 300.84,29.025 C300.109996,29.3550016 299.465003,29.7499977 298.905,30.21 L298.215,28.11 C298.455001,27.9299991 298.764998,27.7500009 299.145,27.57 C299.525002,27.3899991 299.954998,27.2300007 300.435,27.09 C300.915002,26.9499993 301.424997,26.8350004 301.965,26.745 C302.505003,26.6549995 303.054997,26.61 303.615,26.61 C305.515009,26.61 306.949995,27.0249958 307.92,27.855 C308.890005,28.6850041 309.375,29.999991 309.375,31.8 L309.375,39.57 C309.375,39.9100017 309.395,40.3349974 309.435,40.845 C309.475,41.3550025 309.525,41.7399987 309.585,42 L307.305,42 Z" id="Послушайте-на" fill="#FFFFFF"></path><g id="Imported-Layers" transform="translate(20.000000, 21.000000)"><path d="M64,56 C64,73.672 49.673,88 32,88 C14.327,88 0,73.672 0,56 C0,38.327 14.327,24 32,24 C49.673,24 64,38.327 64,56" id="Fill-1" fill="#FFCC02"></path><path d="M48,56 C48,64.836 40.836,72 32,72 C23.164,72 16,64.836 16,56 C16,47.164 23.164,40 32,40 C34.9142158,40 37.6465585,40.7792693 40,42.1407797 L40,14.5 L40,0 L64,8 L64,24 L48,18.6666667 L48,56 Z" id="Combined-Shape" fill="#EE0000"></path></g></g></g></g></svg> 